<svg width="320" height="929" fill="none" xmlns="http://www.w3.org/2000/svg"><g filter="url(#filter0_f)"><rect x="18" y="336" width="284" height="245" rx="20" fill="url(#paint0_linear)" fill-opacity="0.3"/></g><rect x="20" y="338" width="280" height="253" rx="18" fill="black"/><rect x="20" y="338" width="280" height="253" rx="18" fill="url(#paint1_linear)" fill-opacity="0.2"/><rect x="20" y="338" width="280" height="253" rx="18" stroke="url(#paint2_linear)" stroke-width="4" fill-opacity="0"/><path fill-rule="evenodd" clip-rule="evenodd" d="M155.648 382.963H149.992C147.874 382.963 146.157 381.238 146.157 379.118V375.043H146.065C145.477 375.043 145 374.561 145 373.973V369.406C145 368.815 145.472 368.336 146.065 368.336H146.157V365.845C146.157 363.722 147.868 362 149.992 362H170.008C172.126 362 173.843 363.724 173.843 365.845V368.336H173.935C174.523 368.336 175 368.818 175 369.406V373.973C175 374.564 174.527 375.043 173.935 375.043H173.843V379.118C173.843 381.242 172.132 382.963 170.008 382.963H164.444V383.941H164.954L166.759 384.64V384.919H167.454V385.665C167.572 385.668 168.644 385.714 169.387 386.55C170.174 387.435 170.082 388.367 170.082 388.367V389.151H170.302L171.182 390.036V392.412L170.326 393.274H168.542L168.159 392.888V391.712H167.431V389.657C167.431 389.377 167.656 389.151 167.938 389.151H168.324C168.328 388.763 168.33 388.386 168.322 388.32C168.281 387.942 168.183 387.807 168.045 387.668C167.918 387.541 167.524 387.413 167.454 387.392V388.367H166.713V391.255L165.695 392.373V393.863H166.158C166.158 393.863 166.713 393.863 167.269 394.096C167.824 394.329 168.287 394.795 168.287 394.795V396.286H160.509V393.863L160.51 393.398H159.583V393.771V396.286H151.805V394.795C151.805 394.795 152.268 394.329 152.824 394.096C153.38 393.863 153.935 393.771 153.935 393.771H154.398V392.373L153.426 391.208V388.367H152.639V387.418C152.496 387.467 152.229 387.567 152.13 387.668C151.991 387.807 151.893 387.942 151.852 388.32C151.844 388.387 151.847 388.768 151.85 389.158H152.226C152.507 389.158 152.733 389.385 152.733 389.665V391.72H152.004V392.896L151.621 393.282H149.838L148.981 392.419V390.044L149.861 389.158H150.092V388.367C150.092 388.367 150 387.435 150.787 386.55C151.441 385.815 152.349 385.69 152.639 385.669V384.919H153.333V384.64L155.092 383.941H155.648V382.963ZM147.129 366.409V378.366C147.129 379.977 148.431 381.285 150.037 381.285H170.008C171.611 381.285 172.916 379.978 172.916 378.366V366.409C172.916 364.799 171.614 363.49 170.008 363.49H150.037C148.434 363.49 147.129 364.797 147.129 366.409Z" fill="white"/><path fill-rule="evenodd" clip-rule="evenodd" d="M154.545 374.973C153.792 374.973 153.182 373.936 153.182 372.657C153.182 371.377 153.792 370.34 154.545 370.34C155.299 370.34 155.909 371.377 155.909 372.657C155.909 373.936 155.299 374.973 154.545 374.973Z" fill="white"/><path fill-rule="evenodd" clip-rule="evenodd" d="M164.545 374.973C163.792 374.973 163.182 373.936 163.182 372.657C163.182 371.377 163.792 370.34 164.545 370.34C165.298 370.34 165.909 371.377 165.909 372.657C165.909 373.936 165.298 374.973 164.545 374.973Z" fill="white"/><text fill="white" xml:space="preserve" style="white-space: pre" font-family="Titillium Web" font-size="20" font-weight="600" letter-spacing="0em"><tspan x="58.6328" y="434.45">Augmented Intelligence</tspan></text><text fill="white" xml:space="preserve" style="white-space: pre" font-family="Roboto" font-size="16" letter-spacing="0em"><tspan x="44.7656" y="470.469">Unifying the combined strengths </tspan><tspan x="70.0078" y="498.469">of humans and machines</tspan></text><text fill="white" xml:space="preserve" style="white-space: pre" font-family="Roboto" font-size="16" letter-spacing="0em"><tspan x="50.1641" y="532.469">Maintains speed and efficiency </tspan><tspan x="63.7344" y="560.469">of computational approach</tspan></text><path d="M54.4574 9.59934e-06L265.543 5.65899e-06C266.096 5.67103e-06 266.543 0.447721 266.543 1.00001L266.543 187.128C266.543 187.676 266.984 188.122 267.533 188.128L308.661 188.56C310.51 188.58 311.345 190.882 309.938 192.082L163.894 316.678C161.651 318.591 158.349 318.591 156.106 316.678L10.0617 192.082C8.65533 190.882 9.49017 188.58 11.3388 188.56L52.4676 188.128C53.0158 188.122 53.4571 187.676 53.4571 187.128L53.4574 1.00001C53.4574 0.447724 53.9051 9.60954e-06 54.4574 9.59934e-06Z" fill="url(#paint3_linear)"/><text fill="#00B2FF" xml:space="preserve" style="white-space: pre" font-family="Titillium Web" font-size="20" font-weight="600" letter-spacing="0em"><tspan x="77.1875" y="45.45">Human Intelligence</tspan></text><text fill="white" xml:space="preserve" style="white-space: pre" font-family="Roboto" font-size="16" letter-spacing="0em"><tspan x="80.6953" y="81.4688">Based on intuition and </tspan><tspan x="121.312" y="109.469">experience</tspan></text><text fill="white" xml:space="preserve" style="white-space: pre" font-family="Roboto" font-size="16" letter-spacing="0em"><tspan x="82.5312" y="143.469">Generates unique and </tspan><tspan x="98.4922" y="171.469">tailored solutions</tspan></text><text fill="white" xml:space="preserve" style="white-space: pre" font-family="Roboto" font-size="16" letter-spacing="0em"><tspan x="118.953" y="205.469">Recognizes </tspan><tspan x="115.164" y="233.469">patterns and </tspan><tspan x="116.328" y="261.469">connections</tspan></text><path d="M54.4574 929L265.543 929C266.096 929 266.543 928.552 266.543 928L266.543 741.872C266.543 741.324 266.984 740.878 267.533 740.872L308.661 740.44C310.51 740.42 311.345 738.118 309.938 736.918L163.894 612.322C161.651 610.408 158.349 610.408 156.106 612.322L10.0617 736.918C8.65533 738.118 9.49016 740.42 11.3388 740.44L52.4676 740.872C53.0158 740.878 53.4571 741.324 53.4571 741.872L53.4574 928C53.4574 928.552 53.9051 929 54.4574 929Z" fill="url(#paint4_linear)"/><text fill="#FF5600" xml:space="preserve" style="white-space: pre" font-family="Titillium Web" font-size="20" font-weight="600" letter-spacing="0em"><tspan x="123.104" y="680.45">Machine </tspan><tspan x="109.979" y="708.45">Intelligence</tspan></text><text fill="white" xml:space="preserve" style="white-space: pre" font-family="Roboto" font-size="16" letter-spacing="0em"><tspan x="110.727" y="744.469">Executes rule-</tspan><tspan x="104.078" y="772.469">based solutions</tspan></text><text fill="white" xml:space="preserve" style="white-space: pre" font-family="Roboto" font-size="16" letter-spacing="0em"><tspan x="96.2188" y="806.469">Processing power </tspan><tspan x="115.836" y="834.469">yields speed</tspan></text><text fill="white" xml:space="preserve" style="white-space: pre" font-family="Roboto" font-size="16" letter-spacing="0em"><tspan x="68.9609" y="868.469">Handles large scale tasks </tspan><tspan x="87.4688" y="896.469">and volumes of data</tspan></text><defs><filter id="filter0_f" x="-102" y="216" width="524" height="485" filterUnits="userSpaceOnUse" color-interpolation-filters="sRGB"><feFlood flood-opacity="0" result="BackgroundImageFix"/><feBlend mode="normal" in="SourceGraphic" in2="BackgroundImageFix" result="shape"/><feGaussianBlur stdDeviation="60" result="effect1_foregroundBlur"/></filter><linearGradient id="paint0_linear" x1="302" y1="341.616" x2="-7.20879" y2="535.097" gradientUnits="userSpaceOnUse"><stop stop-color="#FF5600"/><stop offset="0.520833" stop-color="white"/><stop offset="1" stop-color="#00B2FF"/></linearGradient><linearGradient id="paint1_linear" x1="302" y1="341.891" x2="-15.3528" y2="531.196" gradientUnits="userSpaceOnUse"><stop stop-color="#FF3F00"/><stop offset="1" stop-color="#00B2FF"/></linearGradient><linearGradient id="paint2_linear" x1="255.5" y1="593" x2="89.7007" y2="343.167" gradientUnits="userSpaceOnUse"><stop stop-color="#FF5600"/><stop offset="0.348958" stop-color="#EC8E00"/><stop offset="0.567708" stop-color="#FFEFD7"/><stop offset="1" stop-color="#00B2FF"/></linearGradient><linearGradient id="paint3_linear" x1="160.441" y1="-111" x2="159.875" y2="314.501" gradientUnits="userSpaceOnUse"><stop stop-color="#00B2FF" stop-opacity="0"/><stop offset="0.614583" stop-color="#00B2FF" stop-opacity="0.2"/><stop offset="1" stop-color="#00B2FF" stop-opacity="0.45"/></linearGradient><linearGradient id="paint4_linear" x1="160" y1="1040" x2="160" y2="614.499" gradientUnits="userSpaceOnUse"><stop stop-color="#FF5600" stop-opacity="0"/><stop offset="0.666667" stop-color="#FF5600" stop-opacity="0.2"/><stop offset="1" stop-color="#FF6B20" stop-opacity="0.45"/></linearGradient></defs></svg>
