<svg width="1264" height="589" fill="none" xmlns="http://www.w3.org/2000/svg"><g filter="url(#a)"><rect x="447" y="120" width="370" height="349" rx="20" fill="url(#b)" fill-opacity=".3"/></g><rect x="450" y="123" width="364" height="343" rx="17" fill="#000"/><rect x="450" y="123" width="364" height="343" rx="17" fill="url(#c)" fill-opacity=".2"/><rect x="450" y="123" width="364" height="343" rx="17" fill-opacity="0" stroke="url(#d)" stroke-width="6"/><path fill-rule="evenodd" clip-rule="evenodd" d="M624.351 198.221h-8.154c-3.053 0-5.529-2.486-5.529-5.543v-5.874h-.133a1.542 1.542 0 0 1-1.535-1.543v-6.585c0-.851.681-1.542 1.535-1.542h.133v-3.591a5.53 5.53 0 0 1 5.529-5.543h28.856c3.053 0 5.529 2.486 5.529 5.543v3.591h.133c.848 0 1.535.695 1.535 1.542v6.585c0 .852-.681 1.543-1.535 1.543h-.133v5.874a5.53 5.53 0 0 1-5.529 5.543h-8.021v1.411h.735l2.602 1.007v.403h1.002v1.075c.17.004 1.716.071 2.787 1.276 1.135 1.275 1.001 2.619 1.001 2.619v1.13h.319l1.268 1.276v3.425l-1.235 1.243h-2.571l-.552-.555v-1.696h-1.05v-2.963c0-.403.324-.73.731-.73h.557c.005-.559.008-1.101-.003-1.197-.059-.545-.2-.739-.4-.941-.183-.183-.752-.367-.852-.398v1.406h-1.068v4.164l-1.468 1.612v2.149h.667s.801 0 1.602.335c.801.336 1.468 1.008 1.468 1.008v2.149h-11.213v-3.492l.002-.672h-1.337v4.164h-11.213v-2.149s.668-.672 1.468-1.008a8.227 8.227 0 0 1 1.602-.469h.668v-2.015l-1.402-1.679v-4.097h-1.134v-1.367c-.206.07-.591.215-.735.359-.2.202-.341.396-.4.941-.011.096-.007.645-.003 1.208h.542a.73.73 0 0 1 .731.73v2.964h-1.05v1.695l-.552.556h-2.571l-1.235-1.243v-3.425l1.268-1.277h.334v-1.141s-.134-1.344 1.001-2.619c.942-1.06 2.252-1.24 2.67-1.27v-1.081h1.001v-.403l2.536-1.007h.801v-1.411Zm-12.281-23.865v17.239c0 2.321 1.877 4.208 4.192 4.208h28.792c2.31 0 4.192-1.884 4.192-4.208v-17.239c0-2.321-1.877-4.208-4.192-4.208h-28.792c-2.311 0-4.192 1.884-4.192 4.208Z" fill="#fff"/><path fill-rule="evenodd" clip-rule="evenodd" d="M622.761 186.703c-1.086 0-1.966-1.495-1.966-3.339 0-1.845.88-3.34 1.966-3.34 1.086 0 1.966 1.495 1.966 3.34 0 1.844-.88 3.339-1.966 3.339ZM637.178 186.703c-1.086 0-1.966-1.495-1.966-3.339 0-1.845.88-3.34 1.966-3.34 1.086 0 1.966 1.495 1.966 3.34 0 1.844-.88 3.339-1.966 3.339Z" fill="#fff"/><text fill="#fff" xml:space="preserve" style="white-space:pre" font-family="Titillium Web" font-size="28" font-weight="600" letter-spacing="0em"><tspan x="490.086" y="269.859">Augmented Intelligence</tspan></text><text fill="#fff" xml:space="preserve" style="white-space:pre" font-family="Roboto" font-size="18" letter-spacing="0em"><tspan x="502.361" y="321.152">Unifying the combined strengths </tspan><tspan x="530.759" y="349.152">of humans and machines</tspan></text><text fill="#fff" xml:space="preserve" style="white-space:pre" font-family="Roboto" font-size="18" letter-spacing="0em"><tspan x="508.435" y="385.152">Maintains speed and efficiency </tspan><tspan x="523.701" y="413.152">of computational approach</tspan></text><path d="M1264 399.543V188.457c0-.553-.45-1-1-1H965.872a1 1 0 0 1-1-.99l-.432-41.128c-.02-1.849-2.322-2.684-3.522-1.277L836.322 290.106a6 6 0 0 0 0 7.788l124.596 146.044c1.2 1.407 3.502.572 3.522-1.277l.432-41.129a1 1 0 0 1 1-.989H1263c.55 0 1-.448 1-1Z" fill="url(#e)"/><text fill="#FF5600" xml:space="preserve" style="white-space:pre" font-family="Titillium Web" font-size="24" font-weight="600" letter-spacing="0em"><tspan x="962" y="236.94">Machine Intelligence</tspan></text><text fill="#fff" xml:space="preserve" style="white-space:pre" font-family="Roboto" font-size="16" letter-spacing="0em"><tspan x="963" y="280.469">Executes rule-based solutions</tspan></text><path d="m944.262 278.468 3.472-3.472-3.472-3.473a.89.89 0 0 1 0-1.261.89.89 0 0 1 1.261 0l4.108 4.107a.891.891 0 0 1 0 1.262l-4.108 4.107a.89.89 0 0 1-1.261 0 .91.91 0 0 1 0-1.27Z" fill="#fff"/><text fill="#fff" xml:space="preserve" style="white-space:pre" font-family="Roboto" font-size="16" letter-spacing="0em"><tspan x="963" y="312.469">Processing power yields speed</tspan></text><path d="m944.262 310.468 3.472-3.472-3.472-3.473a.89.89 0 0 1 0-1.261.89.89 0 0 1 1.261 0l4.108 4.107a.891.891 0 0 1 0 1.262l-4.108 4.107a.89.89 0 0 1-1.261 0 .91.91 0 0 1 0-1.27ZM944.262 341.468l3.472-3.472-3.472-3.473a.89.89 0 0 1 0-1.261.89.89 0 0 1 1.261 0l4.108 4.107a.891.891 0 0 1 0 1.262l-4.108 4.107a.89.89 0 0 1-1.261 0 .91.91 0 0 1 0-1.27Z" fill="#fff"/><text fill="#fff" xml:space="preserve" style="white-space:pre" font-family="Roboto" font-size="16" letter-spacing="0em"><tspan x="963" y="344.469">Handles large scale tasks and </tspan><tspan x="963" y="370.469">volumes of data</tspan></text><path d="M0 399.543V188.457a1 1 0 0 1 1-1h297.128a1 1 0 0 0 1-.99l.432-41.128c.02-1.849 2.322-2.684 3.522-1.277l124.596 146.044a6 6 0 0 1 0 7.788L303.082 443.938c-1.2 1.407-3.502.572-3.522-1.277l-.432-41.129a1 1 0 0 0-1-.989H1a1 1 0 0 1-1-1Z" fill="url(#f)"/><text fill="#00B2FF" xml:space="preserve" style="white-space:pre" font-family="Titillium Web" font-size="25" font-weight="600" letter-spacing="0em"><tspan x="63" y="249.312">Human Intelligence</tspan></text><text fill="#fff" xml:space="preserve" style="white-space:pre" font-family="Roboto" font-size="16" letter-spacing="0em"><tspan x="64" y="292.469">Based on intuition and experience</tspan></text><path d="m45.262 290.468 3.472-3.472-3.472-3.473a.891.891 0 1 1 1.262-1.261l4.107 4.107a.891.891 0 0 1 0 1.262l-4.108 4.107a.891.891 0 0 1-1.261 0 .91.91 0 0 1 0-1.27Z" fill="#fff"/><text fill="#fff" xml:space="preserve" style="white-space:pre" font-family="Roboto" font-size="16" letter-spacing="0em"><tspan x="64" y="326.469">Generates unique and tailored solutions</tspan></text><path d="m45.262 324.468 3.472-3.472-3.472-3.473a.891.891 0 1 1 1.262-1.261l4.107 4.107a.891.891 0 0 1 0 1.262l-4.108 4.107a.891.891 0 0 1-1.261 0 .91.91 0 0 1 0-1.27Z" fill="#fff"/><text fill="#fff" xml:space="preserve" style="white-space:pre" font-family="Roboto" font-size="16" letter-spacing="0em"><tspan x="64" y="360.469">Recognizes patterns and connections</tspan></text><path d="m45.262 358.468 3.472-3.472-3.472-3.473a.891.891 0 1 1 1.262-1.261l4.107 4.107a.891.891 0 0 1 0 1.262l-4.108 4.107a.891.891 0 0 1-1.261 0 .91.91 0 0 1 0-1.27Z" fill="#fff"/><defs><linearGradient id="b" x1="817" y1="128" x2="394.727" y2="369.659" gradientUnits="userSpaceOnUse"><stop stop-color="#FF5600"/><stop offset=".521" stop-color="#fff"/><stop offset="1" stop-color="#00B2FF"/></linearGradient><linearGradient id="c" x1="817" y1="128" x2="394.727" y2="369.659" gradientUnits="userSpaceOnUse"><stop stop-color="#FF5600"/><stop offset="1" stop-color="#00B2FF"/></linearGradient><linearGradient id="d" x1="838.929" y1="120" x2="375.109" y2="370.641" gradientUnits="userSpaceOnUse"><stop offset=".089" stop-color="#FF5600"/><stop offset=".422" stop-color="#EC8E00"/><stop offset=".583" stop-color="#FFEFD7"/><stop offset=".854" stop-color="#00B2FF"/></linearGradient><linearGradient id="e" x1="1264" y1="294" x2="838.499" y2="294" gradientUnits="userSpaceOnUse"><stop stop-color="#FF5600" stop-opacity="0"/><stop offset=".667" stop-color="#FF5600" stop-opacity=".2"/><stop offset="1" stop-color="#FF6B20" stop-opacity=".45"/></linearGradient><linearGradient id="f" x1="0" y1="293.559" x2="425.501" y2="294.125" gradientUnits="userSpaceOnUse"><stop stop-color="#00B2FF" stop-opacity="0"/><stop offset=".615" stop-color="#00B2FF" stop-opacity=".2"/><stop offset="1" stop-color="#00B2FF" stop-opacity=".45"/></linearGradient><filter id="a" x="327" y="0" width="610" height="589" filterUnits="userSpaceOnUse" color-interpolation-filters="sRGB"><feFlood flood-opacity="0" result="BackgroundImageFix"/><feBlend in="SourceGraphic" in2="BackgroundImageFix" result="shape"/><feGaussianBlur stdDeviation="60" result="effect1_foregroundBlur"/></filter></defs></svg>
