<svg width="768" height="756" viewBox="0 0 768 756" fill="none" xmlns="http://www.w3.org/2000/svg"><mask id="mask0" style="mask-type:alpha" maskUnits="userSpaceOnUse" x="0" y="511" width="768" height="245"><rect y="511" width="768" height="245" fill="#C4C4C4"/></mask><g mask="url(#mask0)"><path d="M767 853L1.00018 853C0.447876 853 0.000183111 852.552 0.000183117 852L1.82017e-06 700.363C1.82926e-06 699.601 0.433474 698.905 1.11774 698.569L382.09 511.304C383.762 510.482 385.721 510.483 387.392 511.308L766.885 698.568C767.568 698.905 768 699.6 768 700.361L768 852C768 852.552 767.552 853 767 853Z" fill="url(#paint0_linear)"/></g><g filter="url(#filter0_f)"><rect x="117" y="271" width="534" height="223" rx="20" fill="url(#paint1_linear)" fill-opacity="0.3"/></g><rect x="119" y="273" width="530" height="219" rx="18" fill="black"/><rect x="119" y="273" width="530" height="219" rx="18" fill="url(#paint2_linear)" fill-opacity="0.2"/><rect x="119" y="273" width="530" height="219" rx="18" stroke="url(#paint3_linear)" stroke-width="4" fill-opacity="0"/><path fill-rule="evenodd" clip-rule="evenodd" d="M379.097 323.963H372.726C370.34 323.963 368.405 322.238 368.405 320.118V316.043H368.301C367.639 316.043 367.102 315.561 367.102 314.973V310.406C367.102 309.815 367.634 309.336 368.301 309.336H368.405V306.845C368.405 304.722 370.333 303 372.726 303H395.275C397.661 303 399.595 304.724 399.595 306.845V309.336H399.699C400.362 309.336 400.899 309.818 400.899 310.406V314.973C400.899 315.564 400.367 316.043 399.699 316.043H399.595V320.118C399.595 322.242 397.668 323.963 395.275 323.963H389.007V324.941H389.581L391.615 325.64V325.919H392.397V326.665C392.53 326.668 393.739 326.714 394.576 327.55C395.462 328.435 395.358 329.367 395.358 329.367V330.151H395.607L396.598 331.036V333.412L395.633 334.274H393.624L393.192 333.888V332.712H392.372V330.657C392.372 330.377 392.625 330.151 392.943 330.151H393.378C393.382 329.763 393.384 329.386 393.376 329.32C393.33 328.942 393.22 328.807 393.063 328.668C392.921 328.541 392.476 328.413 392.397 328.392V329.367H391.563V332.255L390.416 333.373V334.863H390.937C390.937 334.863 391.563 334.863 392.189 335.096C392.815 335.329 393.336 335.795 393.336 335.795V337.286H384.574V334.863L384.575 334.398H383.531V334.771V337.286H374.768V335.795C374.768 335.795 375.29 335.329 375.916 335.096C376.542 334.863 377.168 334.771 377.168 334.771H377.689V333.373L376.594 332.208V329.367H375.707V328.418C375.547 328.467 375.246 328.567 375.134 328.668C374.977 328.807 374.867 328.942 374.82 329.32C374.812 329.387 374.815 329.768 374.819 330.158H375.242C375.559 330.158 375.813 330.385 375.813 330.665V332.72H374.993V333.896L374.561 334.282H372.552L371.587 333.419V331.044L372.578 330.158H372.839V329.367C372.839 329.367 372.734 328.435 373.621 327.55C374.357 326.815 375.381 326.69 375.707 326.669V325.919H376.49V325.64L378.471 324.941H379.097V323.963ZM369.5 307.409V319.366C369.5 320.977 370.966 322.285 372.776 322.285H395.275C397.08 322.285 398.551 320.978 398.551 319.366V307.409C398.551 305.799 397.084 304.49 395.275 304.49H372.776C370.97 304.49 369.5 305.797 369.5 307.409Z" fill="white"/><path fill-rule="evenodd" clip-rule="evenodd" d="M377.855 315.973C377.006 315.973 376.318 314.936 376.318 313.657C376.318 312.377 377.006 311.34 377.855 311.34C378.703 311.34 379.391 312.377 379.391 313.657C379.391 314.936 378.703 315.973 377.855 315.973Z" fill="white"/><path fill-rule="evenodd" clip-rule="evenodd" d="M389.12 315.973C388.272 315.973 387.584 314.936 387.584 313.657C387.584 312.377 388.272 311.34 389.12 311.34C389.969 311.34 390.656 312.377 390.656 313.657C390.656 314.936 389.969 315.973 389.12 315.973Z" fill="white"/><text fill="white" xml:space="preserve" style="white-space: pre" font-family="Titillium Web" font-size="20" font-weight="600" letter-spacing="0em"><tspan x="282.633" y="375.45">Augmented Intelligence</tspan></text><text fill="white" xml:space="preserve" style="white-space: pre" font-family="Roboto" font-size="16" letter-spacing="0em"><tspan x="177.353" y="417.469">Unifying the combined strengths of humans and machines</tspan></text><text fill="white" xml:space="preserve" style="white-space: pre" font-family="Roboto" font-size="16" letter-spacing="0em"><tspan x="176.477" y="453.469">Maintains speed and efficiency of computational approach</tspan></text><mask id="mask1" style="mask-type:alpha" maskUnits="userSpaceOnUse" x="0" y="0" width="768" height="255"><rect width="768" height="255" fill="#C4C4C4"/></mask><g mask="url(#mask1)"><path d="M1.99998 -99L766 -99C766.552 -99 767 -98.5523 767 -98L767 64.9069C767 65.669 766.567 66.3648 765.883 66.7013L385.915 253.694C384.241 254.517 382.28 254.516 380.608 253.69L2.11425 66.7021C1.43198 66.3651 1.00009 65.67 1.00009 64.909L1 -98C1 -98.5523 1.4477 -99 1.99998 -99Z" fill="url(#paint4_linear)"/></g><text fill="#00B2FF" xml:space="preserve" style="white-space: pre" font-family="Titillium Web" font-size="20" font-weight="600" letter-spacing="0em"><tspan x="301.188" y="54.45">Human Intelligence</tspan></text><text fill="white" xml:space="preserve" style="white-space: pre" font-family="Roboto" font-size="16" letter-spacing="0em"><tspan x="264.023" y="96.4688">Based on intuition and experience</tspan></text><text fill="white" xml:space="preserve" style="white-space: pre" font-family="Roboto" font-size="16" letter-spacing="0em"><tspan x="243.039" y="132.469">Generates unique and tailored solutions</tspan></text><text fill="white" xml:space="preserve" style="white-space: pre" font-family="Roboto" font-size="16" letter-spacing="0em"><tspan x="296.133" y="168.469">Recognizes patterns and </tspan><tspan x="340.328" y="196.469">connections</tspan></text><text fill="#FF5600" xml:space="preserve" style="white-space: pre" font-family="Titillium Web" font-size="20" font-weight="600" letter-spacing="0em"><tspan x="296.385" y="601.45">Machine Intelligence</tspan></text><text fill="white" xml:space="preserve" style="white-space: pre" font-family="Roboto" font-size="16" letter-spacing="0em"><tspan x="278.305" y="643.469">Executes rule-based solutions</tspan></text><text fill="white" xml:space="preserve" style="white-space: pre" font-family="Roboto" font-size="16" letter-spacing="0em"><tspan x="274.07" y="679.469">Processing power yields speed</tspan></text><text fill="white" xml:space="preserve" style="white-space: pre" font-family="Roboto" font-size="16" letter-spacing="0em"><tspan x="218.445" y="715.469">Handles large scale tasks and volumes of data</tspan></text><path d="M249.262 94.4676L252.734 90.9955L249.262 87.5235C248.913 87.1745 248.913 86.6107 249.262 86.2617C249.611 85.9128 250.174 85.9128 250.523 86.2617L254.631 90.3691C254.98 90.7181 254.98 91.2819 254.631 91.6309L250.523 95.7383C250.174 96.0872 249.611 96.0872 249.262 95.7383C248.922 95.3893 248.913 94.8166 249.262 94.4676Z" fill="white"/><path d="M263.262 641.468L266.734 637.996L263.262 634.523C262.913 634.174 262.913 633.611 263.262 633.262C263.611 632.913 264.174 632.913 264.523 633.262L268.631 637.369C268.98 637.718 268.98 638.282 268.631 638.631L264.523 642.738C264.174 643.087 263.611 643.087 263.262 642.738C262.922 642.389 262.913 641.817 263.262 641.468Z" fill="white"/><path d="M259.262 677.468L262.734 673.996L259.262 670.523C258.913 670.174 258.913 669.611 259.262 669.262C259.611 668.913 260.174 668.913 260.523 669.262L264.631 673.369C264.98 673.718 264.98 674.282 264.631 674.631L260.523 678.738C260.174 679.087 259.611 679.087 259.262 678.738C258.922 678.389 258.913 677.817 259.262 677.468Z" fill="white"/><path d="M203.262 713.468L206.734 709.996L203.262 706.523C202.913 706.174 202.913 705.611 203.262 705.262C203.611 704.913 204.174 704.913 204.523 705.262L208.631 709.369C208.98 709.718 208.98 710.282 208.631 710.631L204.523 714.738C204.174 715.087 203.611 715.087 203.262 714.738C202.922 714.389 202.913 713.817 203.262 713.468Z" fill="white"/><path d="M228.262 130.468L231.734 126.996L228.262 123.523C227.913 123.174 227.913 122.611 228.262 122.262C228.611 121.913 229.174 121.913 229.523 122.262L233.631 126.369C233.98 126.718 233.98 127.282 233.631 127.631L229.523 131.738C229.174 132.087 228.611 132.087 228.262 131.738C227.922 131.389 227.913 130.817 228.262 130.468Z" fill="white"/><path d="M279.262 164.468L282.734 160.996L279.262 157.523C278.913 157.174 278.913 156.611 279.262 156.262C279.611 155.913 280.174 155.913 280.523 156.262L284.631 160.369C284.98 160.718 284.98 161.282 284.631 161.631L280.523 165.738C280.174 166.087 279.611 166.087 279.262 165.738C278.922 165.389 278.913 164.817 279.262 164.468Z" fill="white"/><defs><filter id="filter0_f" x="-3" y="151" width="774" height="463" filterUnits="userSpaceOnUse" color-interpolation-filters="sRGB"><feFlood flood-opacity="0" result="BackgroundImageFix"/><feBlend mode="normal" in="SourceGraphic" in2="BackgroundImageFix" result="shape"/><feGaussianBlur stdDeviation="60" result="effect1_foregroundBlur"/></filter><linearGradient id="paint0_linear" x1="384" y1="714.761" x2="384" y2="516.093" gradientUnits="userSpaceOnUse"><stop stop-color="#FF5600" stop-opacity="0"/><stop offset="0.666667" stop-color="#FF5600" stop-opacity="0.2"/><stop offset="1" stop-color="#FF6B20" stop-opacity="0.45"/></linearGradient><linearGradient id="paint1_linear" x1="651" y1="276.112" x2="348.087" y2="667.663" gradientUnits="userSpaceOnUse"><stop stop-color="#FF5600"/><stop offset="0.520833" stop-color="white"/><stop offset="1" stop-color="#00B2FF"/></linearGradient><linearGradient id="paint2_linear" x1="651" y1="276.112" x2="348.087" y2="667.663" gradientUnits="userSpaceOnUse"><stop stop-color="#FF3F00"/><stop offset="1" stop-color="#00B2FF"/></linearGradient><linearGradient id="paint3_linear" x1="563.567" y1="494" x2="476.137" y2="208.52" gradientUnits="userSpaceOnUse"><stop stop-color="#FF5600"/><stop offset="0.348958" stop-color="#EC8E00"/><stop offset="0.567708" stop-color="#FFEFD7"/><stop offset="1" stop-color="#00B2FF"/></linearGradient><linearGradient id="paint4_linear" x1="373.219" y1="43.5129" x2="373.356" y2="247.095" gradientUnits="userSpaceOnUse"><stop stop-color="#00B2FF" stop-opacity="0"/><stop offset="0.614583" stop-color="#00B2FF" stop-opacity="0.2"/><stop offset="1" stop-color="#00B2FF" stop-opacity="0.45"/></linearGradient></defs></svg>
